<svg xmlns="http://www.w3.org/2000/svg" viewBox="0 0 145.71 74.16"><defs><style>.cls-1{fill:#ffaf36;}.cls-2{fill:#7e001c;opacity:0.14;}.cls-3{fill:#f7e99b;}.cls-4{fill:#ed7014;opacity:0.38;}.cls-5{fill:#ffbc00;}.cls-6{fill:#e49300;}</style></defs><g id="Warstwa_2" data-name="Warstwa 2"><g id="Warstwa_1-2" data-name="Warstwa 1"><path class="cls-1" d="M122.76,3a23.22,23.22,0,0,1,4.12.54,23.57,23.57,0,0,1,18.49,21.36c.21,3.08.34,6.57.34,10.51s-.13,7.42-.34,10.5a23.61,23.61,0,0,1-22.61,21.9C93.33,69,61.55,66.38,61.55,66.38c4.73-10.8,4-31,4-31s.76-20.2-4-31c0,0,7.22-.6,18-1.09C91.32,2.76,107.36,2.35,122.76,3Z"/><path class="cls-2" d="M130.21,6.12a25.16,25.16,0,0,0-3.33-2.6,23.57,23.57,0,0,1,18.49,21.36c.21,3.08.34,6.57.34,10.51s-.13,7.42-.34,10.5a23.61,23.61,0,0,1-22.61,21.9C93.33,69,61.55,66.38,61.55,66.38c4.73-10.8,4-31,4-31s.76-20.2-4-31c0,0,7.22-.6,18-1.09,2.57,4.31,3,9.41-1.12,13.7-2.13,2.21-5.52,3.88-5.61,7-.13,4.33,6.07,5.57,8.56,9.11,3.65,5.18-1.64,13.72,2.83,18.22,1.66,1.67,4.17,2.11,6.52,2.41a130.69,130.69,0,0,0,14.26,1c8.73.13,18.43-1.08,24.15-7.67,5.13-5.89,5.59-14.4,5.8-22.21C135.08,18.18,134.94,10.74,130.21,6.12Z"/><path class="cls-3" d="M43.78,35.35c0,12.42,1.07,35.13,9.1,36s22.54.52,22.92-5.74-8.64-9-8.64-14.17,9.75-5,10.3-13.44-9.94-7.36-9.75-14S76.9,15.37,75.8,7.27,58.46-.27,53.42.28,43.78,6.17,43.78,35.35Z"/><path class="cls-4" d="M52.88,69.12c-10.21,0-9.5-67.55,0-67.55S63.08,69.12,52.88,69.12Z"/><rect class="cls-5" x="35.08" y="48.22" width="23.5" height="23.5" rx="11.75"/><circle class="cls-5" cx="35.08" cy="64.14" r="7.58"/><path class="cls-6" d="M9.13,67.29c2.33,1.17,28.26,14.18,39.17,1,6.82-8.21,6-24.53-2.53-29.92-5.22-3.28-13.38-2.53-18.61,1-6.29,4.28-6.36,11.29-11.8,12.13C11.5,52.15,9.79,48.9,6,50.05c-3.37,1-6.19,4.85-6,8.3C.28,62.76,5.44,65.44,9.13,67.29Z"/><path class="cls-5" d="M9.19,66.37c2.31,1.16,28,14,38.93.87,6.82-8.22,6.1-24.5-2.4-29.84-5.17-3.25-13.28-2.47-18.5,1.11C21,42.81,20.86,49.79,15.44,50.65c-3.84.61-5.52-2.63-9.3-1.46-3.36,1-6.17,4.86-6,8.3C.41,61.89,5.53,64.54,9.19,66.37Z"/><rect class="cls-6" x="19.15" y="39.22" width="23.5" height="23.5" rx="11.75" transform="translate(42.32 -7.53) rotate(42.27)"/><rect class="cls-5" x="20.48" y="35.35" width="28.37" height="26.39" rx="11.75"/></g></g></svg>