<svg xmlns="http://www.w3.org/2000/svg" viewBox="0 0 156.31 140.91"><defs><style>.cls-1{fill:#c7602f;}.cls-2{fill:#5e0011;opacity:0.14;}.cls-3{fill:#ff9e9c;}.cls-4{opacity:0.59;}.cls-5{fill:#933f1e;}.cls-6{fill:#ff2d43;}.cls-7{fill:#3a100e;}.cls-8{fill:#fff;}.cls-9{fill:none;stroke:#3a100e;stroke-linecap:round;stroke-linejoin:round;stroke-width:1.6px;}.cls-10{fill:#6e2209;}</style></defs><g id="Warstwa_2" data-name="Warstwa 2"><g id="Warstwa_1-2" data-name="Warstwa 1"><path class="cls-1" d="M135.16,48.78s19,27.43,15.4,55.57a36.27,36.27,0,0,1-4.73,14.22c-10.11,16.87-34.51,22.34-67.68,22.34-41.13,0-68.79-8.42-72.4-36.56S21.14,48.78,21.14,48.78,3.82,48.06.46,29.78,12.72-1.73,29.56.19a23.23,23.23,0,0,1,2.63.45C46.83,4.05,50.49,20.4,50.49,20.4a72.31,72.31,0,0,1,27.66-6.49,72.37,72.37,0,0,1,27.67,6.49S109.91,2.12,126.74.19s32.48,11.31,29.11,29.59S135.16,48.78,135.16,48.78Z"/><path class="cls-2" d="M145.83,118.57c-10.11,16.87-34.51,22.34-67.68,22.34-41.13,0-68.79-8.42-72.4-36.56S21.14,48.78,21.14,48.78,3.82,48.06.46,29.78,12.72-1.73,29.56.19a23.23,23.23,0,0,1,2.63.45c-16,5.5-28.28,33.19-6.89,39.48C29.47,41.35,34.84,41.17,37,45c1.63,2.89.3,6.48-1,9.54-5.06,12.05-9.28,24.77-9.18,37.84S31.92,119,42.38,126.84c11.1,8.31,26,8.9,39.87,8.85C104.75,135.62,129.57,133.81,145.83,118.57Z"/><path class="cls-3" d="M16,30.32a9.48,9.48,0,0,0,10.31,3.32,9.26,9.26,0,0,0,4.49-14.29,9.73,9.73,0,0,0-8.89-3.72C15.1,16.55,11.93,24.79,16,30.32Z"/><path class="cls-3" d="M124.85,30.32a9.46,9.46,0,0,0,10.3,3.32,9.26,9.26,0,0,0,4.49-14.29,9.72,9.72,0,0,0-8.88-3.72C123.93,16.55,120.76,24.79,124.85,30.32Z"/><g class="cls-4"><path class="cls-5" d="M48.07,57.83a7.82,7.82,0,0,0,2.23,8,9.21,9.21,0,0,0,5.92,1.86,14.88,14.88,0,0,0,8.69-2.78c5.18-3.72,7.16-13.77-.63-16C58.56,47.3,49.64,52.25,48.07,57.83Z"/><path class="cls-5" d="M71.85,40a5.33,5.33,0,0,0,5.71,1.35c4.11-1.55,5.23-8.91.22-9.94C73.22,30.45,68.32,36,71.85,40Z"/><path class="cls-5" d="M97.31,34.91A15.24,15.24,0,0,0,89.8,45.13c-.74,4.31,1.06,9.09,4.79,11.37,2.86,1.75,6.44,1.89,9.74,1.3A19.19,19.19,0,0,0,115,52.35a13.61,13.61,0,0,0,3.75-11.13C117.05,30.24,104.88,30.49,97.31,34.91Z"/></g><circle class="cls-6" cx="31.51" cy="108.8" r="10.83" transform="translate(-39 20.15) rotate(-22.34)"/><circle class="cls-6" cx="126.8" cy="108.8" r="10.83" transform="translate(-39.8 121.53) rotate(-45)"/><circle class="cls-7" cx="39.68" cy="89.7" r="9.48" transform="translate(-51.8 54.33) rotate(-45)"/><circle class="cls-8" cx="38.66" cy="93.3" r="4.4"/><path class="cls-8" d="M45.72,85.74a2.46,2.46,0,1,1-2.46-2.46A2.46,2.46,0,0,1,45.72,85.74Z"/><circle class="cls-7" cx="119.43" cy="89.7" r="9.48" transform="translate(7.52 188.63) rotate(-78.38)"/><path class="cls-8" d="M122.81,93.3a4.4,4.4,0,1,1-4.4-4.4A4.39,4.39,0,0,1,122.81,93.3Z"/><path class="cls-8" d="M125.47,85.74A2.46,2.46,0,1,1,123,83.28,2.45,2.45,0,0,1,125.47,85.74Z"/><path class="cls-3" d="M78.15,75.4c22,0,22.72,40,0,40S56.11,75.4,78.15,75.4Z"/><path class="cls-7" d="M86.49,88.39c0,2.63-3.58,4.76-8,4.76s-8-2.13-8-4.76,3.57-4.76,8-4.76S86.49,85.76,86.49,88.39Z"/><line class="cls-9" x1="78.5" y1="93.15" x2="78.5" y2="100.65"/><path class="cls-9" d="M84.45,99.47a3,3,0,0,1-2,3.55c-2.57.81-3.79-1.86-3.79-1.86H78.5s-1.22,2.67-3.78,1.86a3,3,0,0,1-2-3.55"/><path class="cls-10" d="M30.37,78.46a10.06,10.06,0,0,1,12.05-1.62S35.09,66.86,30.37,78.46Z"/><path class="cls-10" d="M126.81,78.46a10,10,0,0,0-12-1.62S122.09,66.86,126.81,78.46Z"/></g></g></svg>